<svg version="1" xmlns="http://www.w3.org/2000/svg" width="933.333" height="933.333" viewBox="0 0 700.000000 700.000000"><path d="M502 77.8c-1.9.2-17.7 3.2-35 6.7s-32.8 6.5-34.5 6.8c-1.6.3-4.1.8-5.5 1.1-1.4.3-3.6.8-5 1-1.4.2-3.6.7-5 1-1.4.3-3.7.8-5.2 1.1-1.6.3-4 .7-5.5 1-1.6.3-4.8 1-7.3 1.5s-5.6 1.2-7 1.4c-1.4.2-3.6.7-5 1-1.4.3-3.6.8-5 1-1.4.2-5.9 1.1-10 1.9-4.1.9-8.6 1.8-10 2.1-1.4.2-4.5.9-7 1.5-2.5.5-6.1 1.3-8 1.6-1.9.3-5.3 1-7.5 1.5s-5.6 1.2-7.5 1.5c-1.9.3-4.2.8-5 1-1.9.6-29.4 6.4-33.5 7.1-1.6.3-4.6.9-6.5 1.4-1.9.5-4.8 1.1-6.5 1.3-1.6.3-8.6 1.7-15.5 3.2-6.9 1.5-13.5 2.9-14.7 3.1-6.9 1.3-13.7 6.7-16.9 13.6-2.1 4.2-2.1 5.5-2.3 101.3-.3 135.6-.9 205.4-1.6 209.5-.8 4.3-6.5 11.5-10.8 13.4-3 1.4-5.8 2.2-22.7 6-3.6.8-10.8 2.4-16 3.6-39.6 9.1-57.1 21.2-65.4 45.4-4.3 12.3-4 29 .6 41.4 4.3 11.7 12.2 21.3 23.4 28.5 11.2 7.2 16.1 9.3 28.4 12.4 3.9 1 18.8.9 26.5-.1 20.8-2.7 37-8.6 47.5-17.3 13.1-10.7 23.3-28.4 25.5-44.3.8-5.6 1.5-72.7 1.9-179.6.3-92.7.4-99.2 2.1-102.8 2-4.2 7.3-8 12.5-8.9 1.9-.3 4.6-.9 6-1.1 9.2-1.9 32.9-6.8 35-7.2 1.4-.3 9.9-2 19-3.9 21.8-4.5 21.7-4.4 24.3-5 27.6-5.8 118.1-23.5 120.5-23.5 2.3 0 3.2.5 3.3 1.7 0 1 .3 4 .5 6.8.8 9.3 1 168.3.2 176.4-.9 9.6-2.6 13.3-7.6 16.5-3.3 2.2-15 6-22.1 7.2-7.1 1.3-33.3 7.5-38.7 9.3-14.9 4.7-26.5 11.4-35.1 19.9-5.9 6-12.5 18.5-14.6 27.8-1.6 6.9-1.5 20.7.2 27.4 5.4 20.8 29.6 42.6 53.1 47.8 5.4 1.1 35.7.1 38.1-1.4.3-.2 2.1-.6 4-.9 1.9-.3 4.2-.8 5.1-1.1.9-.3 2.5-.6 3.5-.8 1-.2 4.1-1.3 6.9-2.4 21.6-8.6 35.5-24.1 42.6-47.7l2.4-8v-197c-.1-190.8-.2-197.1-2-200.5-2.4-4.3-2.8-4.7-10.1-9.1-6.2-3.8-9.5-4.6-15.5-4.1z"/></svg>